<?xml version="1.0" encoding="UTF-8" standalone="no"?>
<!-- Created with Inkscape (http://www.inkscape.org/) -->

<svg
   xmlns:dc="http://purl.org/dc/elements/1.1/"
   xmlns:cc="http://creativecommons.org/ns#"
   xmlns:rdf="http://www.w3.org/1999/02/22-rdf-syntax-ns#"
   xmlns:svg="http://www.w3.org/2000/svg"
   xmlns="http://www.w3.org/2000/svg"
   xmlns:xlink="http://www.w3.org/1999/xlink"
   xmlns:sodipodi="http://sodipodi.sourceforge.net/DTD/sodipodi-0.dtd"
   xmlns:inkscape="http://www.inkscape.org/namespaces/inkscape"
   id="svg2876"
   version="1.1"
   inkscape:version="0.47 r22583"
   width="1850"
   height="1055"
   sodipodi:docname="Akira.png">
  <metadata id="metadata8">
    <rdf:RDF>
      <cc:Work rdf:about="">
        <dc:format>image/svg+xml</dc:format>
        <dc:type rdf:resource="http://purl.org/dc/dcmitype/StillImage"/>
        <dc:title/>
      </cc:Work>
    </rdf:RDF>
  </metadata>
  <defs
     id="defs2880">
    <inkscape:perspective sodipodi:type="inkscape:persp3d" inkscape:vp_x="0 : 0.5 : 1" inkscape:vp_y="0 : 1000 : 0" inkscape:vp_z="1 : 0.5 : 1" inkscape:persp3d-origin="0.5 : 0.33333333 : 1" id="perspective10"/>
    <filter inkscape:collect="always" id="filter3735" x="-0.2" width="1.4" y="-0.2" height="1.4" color-interpolation-filters="sRGB">
      <feGaussianBlur inkscape:collect="always" stdDeviation="20" id="feGaussianBlur3737"/>
    </filter>
  </defs>
  <path style="opacity: 0.7; fill: rgb(0, 0, 0); fill-opacity: 1; stroke: none; filter: url(#filter3735);" d="m 145,115 -105,790 127,0 28,-210 67.5,0 27.5,210 150,0 -100,-790 -195,0 z m 315,0 0,790 155,0 0,-145 45,145 149.5,0 L 697.4375,492.5 820,115 l -160,0 -50,150 0,-150 -150,0 z m 375,0 0,790 160,0 0,-790 -160,0 z m 500,0 c -30,0 -299.7957,0.60864 -299.875,0.125 L 1035,905 l 155,0 0,-385 15,0 c 15,0 25,10 25,25 l 0,325 c 0,15 5,25 15,35 l 155,0 c -10,-10 -15,-35 -15,-55 l 0,-295 c 0,-35 -40,-80 -60,-85 20,-5 70,-40 70,-115 l 0,-155 c 0,-50 -30,-85 -60,-85 z m 185,0 -110,790 145,0 10,-210 80,0 20,210 145,0 -100,-790 -190,0 z m -325,50 c 20,0 35,15 35,50 0,35 0.017,95 0,135 0,35 -15,50 -35,50 l 0,-235 z m -962.5,266 22.5,169 -45,0 22.5,-169 z m 1370,0 22.625,169.125 L 1580,600 1602.5,431 z" id="path3733"/>
  <path
     style="fill:#ffffff;fill-opacity:1;stroke:none;"
     d="m 145,115 -105,790 127,0 28,-210 67.5,0 27.5,210 150,0 -100,-790 -195,0 z m 315,0 0,790 155,0 0,-145 45,145 149.5,0 L 697.4375,492.5 820,115 l -160,0 -50,150 0,-150 -150,0 z m 375,0 0,790 160,0 0,-790 -160,0 z m 500,0 c -30,0 -299.7957,0.60864 -299.875,0.125 L 1035,905 l 155,0 0,-385 15,0 c 15,0 25,10 25,25 l 0,325 c 0,15 5,25 15,35 l 155,0 c -10,-10 -15,-35 -15,-55 l 0,-295 c 0,-35 -40,-80 -60,-85 20,-5 70,-40 70,-115 l 0,-155 c 0,-50 -30,-85 -60,-85 z m 185,0 -110,790 145,0 10,-210 80,0 20,210 145,0 -100,-790 -190,0 z m -325,50 c 20,0 35,15 35,50 0,35 0.017,95 0,135 0,35 -15,50 -35,50 l 0,-235 z m -962.5,266 22.5,169 -45,0 22.5,-169 z m 1370,0 22.625,169.125 L 1580,600 1602.5,431 z"
     id="path2910" />
  <g
     id="g2904">
    <path
       style="fill:#da1d1f"
       d="m 1141,1053.0352 c 0,-2.3249 -2.0833,-3.594 -7.5184,-4.5801 -2.1899,-0.3973 -5.2318,-1.3554 -6.7598,-2.129 -1.528,-0.7736 -5.803,-1.6661 -9.5,-1.9833 -4.012,-0.3442 -8.1328,-1.394 -10.2218,-2.6042 -2.4077,-1.3948 -6.1528,-2.2165 -12,-2.6331 -8.4816,-0.6042 -8.5022,-0.6124 -9.5306,-3.7938 -0.5668,-1.7536 -2.6714,-5.0161 -4.6768,-7.25 l -3.6463,-4.0617 -9.3731,0 c -5.9569,0 -9.8106,-0.4374 -10.5732,-1.2 -0.7118,-0.7118 -1.2,-4.1385 -1.2,-8.4233 0,-6.029 -0.3774,-7.6906 -2.2825,-10.05 -4.6405,-5.74694 -7.7175,-11.36067 -7.7175,-14.08009 0,-2.00223 1.2251,-3.9491 4.3141,-6.856 5.0986,-4.798 8.6859,-9.61874 8.6859,-11.67254 0,-0.81025 -0.675,-2.03338 -1.5,-2.71807 -0.825,-0.68469 -1.5,-2.25743 -1.5,-3.49499 0,-1.23755 -2.25,-5.0648 -5,-8.50501 -2.75,-3.44021 -5,-7.06304 -5,-8.05073 0,-0.9877 -1.125,-3.13281 -2.5,-4.7669 -2.1644,-2.57219 -2.5,-3.94595 -2.5,-10.23234 0,-6.20462 -0.3638,-7.7382 -2.5,-10.53892 -1.7897,-2.34648 -2.5,-4.52555 -2.5,-7.67007 0,-3.39227 -0.5692,-4.92719 -2.5,-6.74104 -1.9537,-1.83537 -2.5033,-3.34857 -2.5153,-6.92431 -0.01,-2.51663 -0.3459,-5.03286 -0.75,-5.59163 -0.4041,-0.55876 -3.5278,-2.80876 -6.9416,-5 -4.3336,-2.78168 -6.533,-4.92841 -7.2876,-7.11314 -0.5944,-1.721 -1.9639,-3.92824 -3.0431,-4.90499 -1.0793,-0.97675 -1.9624,-2.7825 -1.9624,-4.01278 0,-3.21422 -5.8771,-10.01474 -10.1437,-11.7375 -2.78047,-1.1227 -3.80794,-2.21896 -4.3369,-4.62734 -0.38126,-1.73584 -1.77909,-3.86759 -3.1063,-4.7372 -3.04615,-1.99592 -3.19679,-6.3319 -0.31072,-8.94376 4.01268,-3.63142 5.14896,-7.21785 4.53359,-14.30931 -1.09644,-12.63539 -2.18834,-17.71352 -4.41837,-20.54854 -1.38883,-1.76561 -2.2176,-4.21156 -2.2176,-6.54481 0,-2.32491 -0.9399,-5.11062 -2.5,-7.40955 -1.375,-2.02618 -2.5,-4.98381 -2.5,-6.57251 0,-3.82246 -9.51664,-22.17028 -15.36007,-29.61378 -2.55127,-3.24987 -4.63896,-6.62578 -4.6393,-7.50202 -6.2e-4,-1.56806 -9.00106,-14.49969 -12.81118,-18.40683 -1.07269,-1.1 -2.52829,-3.125 -3.23466,-4.5 -0.70638,-1.375 -2.89768,-4.42901 -4.86956,-6.78668 l -3.58523,-4.28669 -1,-14.21331 -1,-14.21332 -3.5,-1.74845 c -2.44069,-1.21926 -5.88104,-1.74891 -11.36702,-1.75 -7.77349,-0.002 -7.91059,0.043 -11.5313,3.74845 -4.46342,4.56784 -22.5058,18.25 -24.06589,18.25 -0.61787,0 -3.82705,2.25 -7.13151,5 -3.30446,2.75 -6.85022,5 -7.87947,5 -1.02925,0 -3.20835,1.125 -4.84244,2.5 -1.6341,1.375 -3.65237,2.5 -4.48506,2.5 -0.83268,0 -3.95269,1.98657 -6.93335,4.41459 -2.98065,2.42802 -6.9594,5.0781 -8.84166,5.88905 -1.88227,0.81095 -6.35345,4.33689 -9.93596,7.83541 -9.1985,8.98284 -26.73848,24.88196 -31.53304,28.58313 -3.9705,3.06502 -4.27664,3.12846 -16.25691,3.36866 -11.52417,0.23105 -12.34725,0.11606 -14.64925,-2.04655 -1.74099,-1.63558 -4.24324,-2.50067 -8.74309,-3.02273 -3.46723,-0.40225 -8.0356,-1.49611 -10.15194,-2.43079 -3.32841,-1.46998 -6.70353,-1.64666 -25,-1.30869 -14.16614,0.26168 -22.55299,0.84251 -25.39368,1.75866 -4.21638,1.35982 -4.26239,1.34776 -7.75,-2.03257 C 696.24955,761.84953 696,761.17222 696,755.48562 c 0,-5.37169 0.39797,-6.63986 3.247,-10.34678 1.78586,-2.3236 4.26797,-4.48097 5.51582,-4.79416 2.83863,-0.71245 6.23884,-4.92968 6.23206,-7.72954 -0.003,-1.16333 -1.11378,-3.91514 -2.46879,-6.11514 -1.82147,-2.95732 -2.47181,-5.44085 -2.49488,-9.52749 -0.036,-6.38467 1.60098,-9.34948 6.28567,-11.38388 1.75071,-0.76028 5.43312,-3.39626 8.18312,-5.85773 l 5,-4.47541 0.5,-8.77433 c 0.42459,-7.45093 0.80165,-8.937 2.5,-9.85289 1.1,-0.5932 3.575,-2.07381 5.5,-3.29023 1.925,-1.21643 4.70438,-2.50559 6.1764,-2.8648 1.47203,-0.35921 3.45427,-1.51264 4.40499,-2.56318 1.0047,-1.11018 3.04803,-1.91006 4.87932,-1.91006 1.7905,0 4.61364,-1.0793 6.53929,-2.5 1.86371,-1.375 4.17795,-2.5 5.14276,-2.5 0.96481,0 2.96809,-1.125 4.45174,-2.5 2.08172,-1.92927 3.77029,-2.5 7.39654,-2.5 3.51839,0 5.1776,-0.53173 6.60397,-2.1164 3.23607,-3.59519 10.14205,-7.8836 12.69562,-7.8836 1.33665,0 4.08806,-1.125 6.11423,-2.5 2.02618,-1.375 4.75445,-2.5 6.06282,-2.5 1.30838,0 3.71586,-1.125 5.34995,-2.5 1.6341,-1.375 4.1466,-2.5 5.58334,-2.5 1.54008,0 3.50444,-1.0261 4.78598,-2.5 1.25237,-1.44035 3.2629,-2.50649 4.74339,-2.51531 3.11605,-0.0186 4.09898,-0.67244 6.36581,-4.23469 1.2783,-2.0088 2.56571,-2.75 4.77656,-2.75 3.41225,0 8.42311,-2.2907 9.62759,-4.40122 0.43983,-0.7707 2.69955,-3.58321 5.02159,-6.25002 C 855.41256,607.96162 860,601.37989 860,600.03719 c 0,-1.83718 7.87789,-8.9664 10.62256,-9.61305 C 873.67649,589.70463 880,584.36112 880,582.5 c 0,-2.0854 -6.49712,-7.31704 -10.39127,-8.36731 C 862.98692,572.34676 861,569.64994 861,562.44813 c 0,-7.34965 -0.8097,-8.28295 -7.91622,-9.12461 -3.77109,-0.44663 -6.1523,-0.14543 -8.99908,1.13829 -2.89236,1.30427 -5.22549,1.58764 -9.2279,1.12076 -2.94624,-0.34367 -10.9818,-0.99029 -17.8568,-1.43694 -8.45565,-0.54934 -13.55233,-1.36009 -15.75246,-2.50581 -2.07629,-1.08123 -6.77741,-1.901 -13,-2.2669 C 780.47702,548.91599 777.89153,548.3637 775.5,546.64987 772.78927,544.7073 770.8466,544.45179 755.35265,544 l -17.14736,-0.5 -5.85264,-5.10749 -5.85265,-5.1075 -0.55317,-6.8925 c -0.3134,-3.90484 -1.2792,-7.99397 -2.22811,-9.43357 -1.05871,-1.60618 -1.92359,-5.77601 -2.3508,-11.3339 -0.62538,-8.13597 -0.88788,-8.94959 -3.51374,-10.89097 -2.83404,-2.0953 -2.83701,-2.10967 -2.20599,-10.6661 0.46877,-6.35629 1.24106,-9.62318 2.99184,-12.65583 C 720.77576,467.7127 721,466.13775 721,454.83675 l 0,-12.48754 6.25,-5.05459 c 4.54614,-3.67662 7.47678,-5.25329 10.75,-5.78347 6.46708,-1.04751 8,-2.78041 8,-9.04369 0,-3.52007 0.51048,-5.64623 1.56594,-6.52218 0.86126,-0.71479 2.22282,-2.56989 3.02568,-4.12245 1.01662,-1.96594 2.22591,-2.82283 3.98372,-2.82283 3.32361,0 8.0332,-2.47343 12.7353,-6.68845 3.49465,-3.13265 4.17612,-3.3611 8.21815,-2.75496 4.00083,0.59996 4.68727,0.3812 7.43936,-2.3709 3.75043,-3.75042 3.98066,-7.90264 0.65755,-11.85896 -1.465,-1.74416 -2.64789,-4.82299 -3.08868,-8.03923 -0.39291,-2.86687 -1.57447,-6.89952 -2.6257,-8.96144 C 776.86009,366.26414 776,363.83912 776,362.93713 c 0,-0.902 -4.5,-6.3886 -10,-12.19246 l -10,-10.55246 0,-5.54458 c 0,-4.52821 0.45827,-6.03907 2.5,-8.24213 3.53895,-3.81859 3.581,-12.13604 0.0805,-15.9132 -2.13081,-2.29918 -2.50355,-3.90677 -3.12344,-13.47099 l -0.70388,-10.86025 -4.62656,-5.08797 c -7.67362,-8.4389 -13.24063,-15.98401 -14.16082,-19.1925 -1.34209,-4.6796 0.29927,-15.46256 2.75898,-18.12516 3.3044,-3.57696 4.26372,-9.20243 4.26969,-25.03755 0.006,-14.85264 -1.12679,-20.9116 -4.28321,-22.91752 -0.66616,-0.42335 -4.44157,-0.77663 -8.38978,-0.78505 -7.75373,-0.0165 -9.7947,-1.06846 -10.94196,-5.63952 -0.34295,-1.3664 -0.2631,-4.14743 0.17743,-6.18008 0.84108,-3.88083 1.03062,-12.59958 0.43904,-20.19571 -0.19275,-2.475 0.0229,-9.7874 0.47919,-16.24978 l 0.82965,-11.74978 -5.50021,-5.50022 C 711.90275,125.5984 709.53361,124 707.65217,124 704.50279,124 701,120.82209 701,117.96482 c 0,-1.11935 -0.62147,-3.03185 -1.38104,-4.25 -2.81786,-4.5191 -4.26766,-28.470935 -1.86838,-30.867053 0.79083,-0.789779 5.67751,-1.450918 13.29217,-1.79835 L 723.08433,80.5 l 3.3944,-4 c 2.49472,-2.939807 3.56898,-5.349104 4.05307,-9.090032 0.59282,-4.581171 1.28865,-5.705858 6.96017,-11.25 C 743.50573,50.28127 744.0209,50 748.77429,50 c 3.13178,0 5.42769,-0.538444 6.18457,-1.450425 0.66206,-0.797734 3.75466,-2.875017 6.87244,-4.616185 3.11779,-1.741168 9.32622,-6.713477 13.79651,-11.049575 4.4703,-4.336098 8.9703,-7.893821 10,-7.906051 C 786.65752,24.965534 788.625,24.075541 790,23 c 1.375,-1.075541 3.99208,-1.965534 5.81574,-1.977764 4.47173,-0.02999 6.84506,-1.458353 8.80947,-5.30188 0.90525,-1.771196 3.1376,-4.682856 4.96078,-6.470356 2.81947,-2.7642868 4.03217,-3.246997 8.11444,-3.2299062 4.34491,0.01819 5.22103,0.4444742 9.24867,4.5000002 5.00434,5.038999 5.97911,5.321699 8.5509,2.479906 1.57613,-1.741607 3.07997,-2 11.63989,-2 l 9.82991,0 6.0151,5.647394 6.0151,5.647393 0,7.781178 C 869,38.304649 870.23237,41 873.9947,41 c 1.01852,0 3.15807,1.099113 4.75456,2.442474 1.94648,1.637854 4.68954,2.646047 8.32673,3.060432 8.54171,0.973157 9.79343,1.38459 10.98477,3.610631 0.94158,1.759344 0.68902,2.538202 -1.59668,4.923951 -2.71357,2.832356 -2.71485,2.841005 -2.17945,14.648271 0.61203,13.497234 3.48391,25.929744 7.24258,31.353501 3.16457,4.56648 3.4298,11.78468 0.52947,14.40944 -1.06883,0.96728 -2.24583,3.13603 -2.61557,4.81944 -0.36974,1.68342 -1.74525,5.07878 -3.05669,7.54525 -1.31143,2.46647 -2.38442,5.69772 -2.38442,7.18056 0,3.08689 2.73578,6.00605 5.62874,6.00605 3.80483,0 4.37126,1.88474 4.37126,14.54501 0,10.4959 0.24832,12.36974 1.82874,13.8 1.00581,0.91025 2.71581,1.65499 3.8,1.65499 2.90668,0 4.37126,1.96116 4.37126,5.85338 0,2.77248 -0.98584,4.49575 -5,8.74014 -4.04776,4.27991 -5,5.95577 -5,8.79957 0,5.1968 1.92921,8.53015 6.19706,10.70744 3.74728,1.91172 3.80294,2.02546 3.80294,7.77085 0,4.35836 0.65638,7.06521 2.5993,10.71936 2.76688,5.20378 2.73965,4.39912 0.79827,23.5908 l -0.57473,5.68153 3.83858,2.44882 c 5.68245,3.6251 8.39467,6.99155 9.46277,11.7453 1.27139,5.65856 -0.58787,14.51445 -3.86526,18.41069 -2.25687,2.68303 -2.4505,3.61065 -2.01733,9.66478 0.34372,4.80382 1.08399,7.4658 2.61878,9.41697 1.35714,1.72532 2.13962,4.14928 2.13962,6.62807 0,3.26224 0.75656,4.71681 4.57869,8.80297 2.51827,2.69224 5.8378,5.17153 7.37671,5.50953 1.53891,0.33801 4.29093,1.71598 6.11559,3.06218 2.2537,1.66272 4.63703,2.44762 7.43216,2.44762 2.26302,0 4.9881,0.66069 6.05572,1.4682 2.66857,2.0184 19.92497,2.04182 23.44113,0.0318 1.375,-0.78602 4.33406,-1.44508 6.57569,-1.46456 3.0253,-0.0263 4.68097,-0.67974 6.42431,-2.53544 2.20749,-2.34976 2.9616,-2.5 12.5486,-2.5 6.2676,0 11.7557,0.54889 14.2353,1.42374 2.2194,0.78306 4.2901,1.16894 4.6015,0.8575 0.3115,-0.31143 1.1396,-0.10644 1.8404,0.45554 0.7008,0.56198 3.7492,1.7603 6.7742,2.66295 4.6229,1.37943 6.2177,2.53074 10,7.21915 5.2316,6.4849 7.0509,7.38112 14.9833,7.38112 3.2192,0 6.5816,0.27953 7.4719,0.62118 3.2803,1.25879 4.5448,5.88695 4.5448,16.63488 0,12.36933 -0.8721,10.86691 17.2511,29.72042 7.0119,7.29447 12.7489,13.79017 12.7489,14.43489 0,0.64472 -2.025,3.1596 -4.5,5.58863 -4.1055,4.02929 -4.5,4.8408 -4.5,9.25787 0,4.71007 -2.1897,10.74213 -3.8995,10.74213 -0.4665,0 -3.622,2.475 -7.0121,5.5 -5.9982,5.35208 -6.3231,5.5 -12.0791,5.5 -7.4451,0 -10.6733,1.4546 -11.9786,5.39733 -1.3094,3.95542 -18.1274,22.74029 -21.6873,24.2236 -1.5447,0.64368 -5.3833,0.90475 -9.0156,0.61319 -5.6561,-0.45403 -6.7281,-0.22874 -10.1304,2.12906 -2.0927,1.45025 -4.7639,2.63682 -5.9361,2.63682 -3.0815,0 -6.2885,1.51464 -10.1445,4.79113 -3.95125,3.35746 -5.30919,9.08747 -4.38772,18.51467 0.52235,5.34389 0.966,6.19601 5.57652,10.7107 7.7769,7.6153 10.0537,8.36151 23.492,7.69968 9.7052,-0.47798 11.7395,-0.87216 13.6203,-2.63904 1.216,-1.14243 3.54,-2.07714 5.1644,-2.07714 1.6244,0 4.575,-1.1019 6.557,-2.44868 1.9819,-1.34677 4.7679,-2.74092 6.1911,-3.09811 1.4232,-0.35719 3.1084,-1.27706 3.7451,-2.04415 0.6366,-0.76709 3.0017,-1.89131 5.2558,-2.49827 2.2541,-0.60696 5.1873,-1.96019 6.5184,-3.00717 1.331,-1.04699 3.8532,-1.90362 5.6048,-1.90362 2.1508,0 3.8906,-0.81167 5.3586,-2.5 1.618,-1.86094 3.1622,-2.5 6.0407,-2.5 3.826,0 7.9806,-2.19062 14.4729,-7.6312 1.5547,-1.30284 3.6577,-2.3688 4.6733,-2.3688 1.0156,0 3.2221,-1.15747 4.9034,-2.57216 6.8882,-5.79607 11.3376,0.63308 4.9786,7.1939 -1.8009,1.85804 -3.7983,3.37826 -4.4386,3.37826 -0.6404,0 -2.7197,1.05554 -4.6208,2.34565 -1.9011,1.29011 -4.7409,2.66801 -6.3106,3.06199 -1.5698,0.39399 -3.9629,1.58844 -5.3179,2.65435 -1.3551,1.06591 -3.2157,1.93801 -4.1347,1.93801 -0.919,0 -3.1637,1.10143 -4.9884,2.44762 -1.8247,1.3462 -4.581,2.72512 -6.1252,3.06428 -1.5442,0.33916 -3.3067,1.21799 -3.9166,1.95296 -0.61,0.73497 -4.5786,3.02548 -8.8191,5.09003 -12.4736,6.07286 -17.0176,9.33172 -18.2597,13.09542 -0.608,1.84233 -1.5303,3.34969 -2.0494,3.34969 -0.5191,0 -1.4504,1.11167 -2.0695,2.47039 -2.5147,5.51926 5.4252,7.70883 10.9861,3.02961 2.0933,-1.76136 4.1615,-2.5 7,-2.5 2.8386,0 4.9068,-0.73864 7,-2.5 2.2936,-1.92992 4.1,-2.5 7.9218,-2.5 3.649,0 5.4176,-0.51595 6.7265,-1.96235 0.9768,-1.0793 3.409,-2.49021 5.405,-3.13536 1.996,-0.64515 4.3041,-1.80014 5.1291,-2.56664 3.525,-3.27506 10.6919,-7.30064 13.0275,-7.31745 3.4096,-0.0245 6.4319,-2.29889 7.9613,-5.99109 1.231,-2.97195 4.8403,-4.86879 6.8734,-3.61226 0.5368,0.33173 1.4788,2.94786 2.0934,5.81362 l 1.1174,5.21048 -3.7865,3.24298 c -2.0826,1.78364 -4.2678,3.25987 -4.8562,3.28052 -0.5883,0.0207 -2.0478,1.16255 -3.2434,2.53755 -1.4887,1.71223 -3.2024,2.5 -5.4382,2.5 -1.7956,0 -5.3779,1.125 -7.9609,2.5 -2.7387,1.45795 -6.3506,2.5 -8.6653,2.5 -2.6118,0 -4.9356,0.76938 -6.7958,2.25 -9.004,7.16699 -9.1468,7.21963 -21.0215,7.75 -11.1348,0.49732 -11.2138,0.51844 -14.75,3.94617 -1.9553,1.89539 -3.5552,3.94461 -3.5552,4.55383 0,0.60922 1.4839,2.54594 3.2976,4.30383 3.154,3.05693 3.6482,3.19617 11.345,3.19617 6.7774,0 8.3331,-0.31563 9.8574,-2 1.4955,-1.65254 3.08,-2 9.1202,-2 6.8044,0 7.5721,-0.22488 11.095,-3.25 2.0816,-1.7875 4.3368,-3.98608 5.0115,-4.88574 0.6746,-0.89965 2.4391,-1.94005 3.921,-2.31199 1.482,-0.37194 3.8032,-1.54835 5.1582,-2.61426 1.6481,-1.29636 4.0284,-1.93801 7.1894,-1.93801 3.3916,0 5.7656,-0.70574 8.4096,-2.5 2.8315,-1.9215 4.9641,-2.5 9.2164,-2.5 4.7816,0 5.9293,-0.39677 8.4556,-2.92308 2.2925,-2.29249 2.9231,-3.81916 2.9231,-7.07692 0,-3.27361 0.63,-4.78381 2.9728,-7.12666 3.3711,-3.37111 5.0375,-3.02662 9.1814,1.89802 1.3034,1.54905 2.9351,3.16582 3.6261,3.59283 1.2896,0.79701 6.4795,-1.90166 11.4061,-5.93096 1.5428,-1.26176 5.3292,-2.66265 8.8941,-3.29059 3.4142,-0.60141 6.9658,-1.77953 7.8923,-2.61805 0.9266,-0.83852 2.9992,-1.53148 4.6059,-1.5399 4.2116,-0.0221 5.6207,-1.27439 6.3276,-5.62366 0.6083,-3.74209 0.7662,-3.86969 5.7759,-4.66711 4.1558,-0.66151 6.2627,-1.7931 10.9094,-5.85929 5.1279,-4.48733 6.1367,-4.97813 9.2076,-4.47978 5.1449,0.8349 7.2008,3.19462 7.2008,8.26495 0,4.68164 -1.6835,6.3802 -6.3235,6.3802 -1.3502,0 -3.5173,0.86064 -4.8157,1.91253 -1.993,1.61459 -2.3608,2.82191 -2.3608,7.75 0,3.21061 -0.3703,6.41004 -0.8228,7.10985 -1.3384,2.06948 -12.382,7.22762 -15.4744,7.22762 -1.7515,0 -3.7615,0.96585 -5.2028,2.5 -1.2917,1.375 -3.149,2.5 -4.1273,2.5 -0.9782,0 -3.0373,0.52237 -4.5756,1.16082 -3.636,1.50899 -14.3685,6.59304 -16.2971,7.71999 -0.825,0.48208 -3.075,1.62268 -5,2.53465 -6.6038,3.12855 -19.5275,10.08514 -21.9858,11.83454 -1.3526,0.9625 -3.2246,1.75 -4.16,1.75 -0.9354,0 -2.9728,1.03002 -4.5275,2.28893 -1.5547,1.25891 -3.9517,2.83352 -5.3267,3.49913 -1.375,0.66561 -4.525,2.75302 -7,4.6387 -8.5338,6.50185 -14.163,8.67103 -24.4548,9.4236 -7.5516,0.5522 -9.8856,1.10671 -11.7357,2.78822 -1.2702,1.15442 -3.5813,2.40018 -5.1357,2.76836 -1.5544,0.36818 -4.8897,2.64672 -7.4118,5.06343 -2.522,2.41671 -5.7502,4.68289 -7.1738,5.03595 -1.4235,0.35307 -3.4882,1.45686 -4.5882,2.45287 -1.1,0.99602 -3.125,2.15241 -4.5,2.56976 -3.6753,1.11555 -15.0002,10.11443 -20.0992,15.97105 -8.1385,9.34762 -9.025,13.29495 -7.1869,32 0.5414,5.50984 1.4865,9.12619 3.0361,11.61803 1.6044,2.57996 2.2511,5.16222 2.2537,9 0,3.77598 0.6514,6.42638 2.1741,8.88197 1.1936,1.925 2.5134,5.93839 2.9329,8.91865 0.4194,2.98026 1.6205,6.58026 2.6691,8 1.0485,1.41974 2.2201,4.25662 2.6035,6.30416 0.3834,2.04755 1.4216,4.12828 2.3072,4.62384 1.0104,0.56545 1.8989,3.02972 2.3856,6.61654 0.4266,3.14352 1.5603,6.58254 2.5193,7.64226 0.9591,1.05972 2.0773,4.38506 2.4851,7.38965 0.4154,3.06132 1.6597,6.63043 2.8304,8.11875 1.2697,1.6142 2.0891,4.11709 2.0891,6.38146 0,2.32491 0.9399,5.11062 2.5,7.40955 1.4465,2.1316 2.5,5.10776 2.5,7.06282 0,2.14517 0.9128,4.46368 2.5,6.34995 1.7389,2.06656 2.5,4.16795 2.5,6.90241 0,2.90045 0.6556,4.54719 2.5,6.27996 1.9687,1.84953 2.5,3.33284 2.5,6.98003 0,3.36989 0.681,5.5544 2.5,8.01997 1.375,1.86371 2.5,4.61661 2.5,6.11755 0,1.50095 1.125,4.06599 2.5,5.70008 1.375,1.6341 2.5,3.3812 2.5,3.88245 0,0.50125 1.125,2.43621 2.5,4.29992 1.375,1.86371 2.5,4.56371 2.5,6 0,1.43629 1.125,4.13629 2.5,6 1.5745,2.13406 2.5,4.71922 2.5,6.98284 0,1.97685 0.9571,5.37693 2.1268,7.55572 1.1697,2.17879 2.4749,6.58471 2.9004,9.79093 0.4947,3.72854 1.5302,6.63497 2.8732,8.06445 1.4767,1.57197 2.1025,3.55076 2.1094,6.67051 0.01,2.60962 1.0349,6.63763 2.5,9.78485 1.3779,2.96004 2.4902,7.17919 2.4902,9.44625 0,2.79576 0.8356,5.30267 2.6309,7.89332 2.2924,3.30797 2.5419,4.40839 1.9392,8.55375 -0.7518,5.17104 -0.7495,4.85924 -0.1054,14.14378 0.3319,4.78494 0.9922,6.97109 2.6334,8.71805 1.2559,1.33682 2.5224,4.43144 2.9685,7.25311 0.5279,3.33959 1.9747,6.48376 4.5013,9.78196 2.0479,2.67326 4.3684,6.3936 5.1567,8.26741 0.7884,1.87381 2.8231,5.13631 4.5218,7.25 2.8985,3.60683 3.4223,3.84307 8.521,3.84307 4.8449,0 5.8004,0.3678 8.8326,3.4 2.9789,2.97893 3.4,4.03243 3.4,8.50661 0,4.20073 0.4435,5.49222 2.5,7.28034 2.4144,2.09929 2.5,2.59663 2.5,14.52493 0,9.17269 0.4677,13.82282 1.8173,18.06962 2.1126,6.6481 2.0277,13.4601 -0.2209,17.7185 -1.0715,2.0292 -1.5861,5.6584 -1.5902,11.2152 -0.01,7.6979 -0.1951,8.4304 -3.0062,11.632 -1.65,1.8793 -3,4.1449 -3,5.0348 0,1.3638 -1.3356,1.618 -8.5,1.618 -7.7826,0 -8.5,-0.1658 -8.5,-1.9648 z M 114.75,1010.6024 c -2.50266,-2.2119 -3.75,-4.1701 -3.75,-5.8869 0,-4.4159 -2.35005,-5.71607 -10.32143,-5.71038 -5.874176,0.004 -7.905397,0.45279 -11.17857,2.46878 -3.168339,1.9514 -5.371204,2.4702 -10.595012,2.4949 -5.299656,0.025 -6.950519,0.424 -8.404988,2.0312 -0.995486,1.1 -2.348972,2 -3.007747,2 -0.658774,0 -3.51403,-2.4887 -6.345012,-5.5304 L 56,996.93923 56,952.6246 c 0,-42.48623 0.07951,-44.38658 1.927148,-46.05867 1.059932,-0.95923 2.232429,-3.61647 2.605549,-5.90499 0.373121,-2.28852 1.482321,-5.06094 2.464889,-6.16094 0.982568,-1.1 2.085577,-3.41584 2.451131,-5.14631 0.365554,-1.73047 1.597453,-3.98047 2.737552,-5 C 70.833499,881.98641 74,874.6862 74,870.95043 74,866.69291 79.990374,861 84.470355,861 c 2.629698,0 4.218208,-0.85274 6.985609,-3.75 1.970056,-2.0625 3.860446,-4.875 4.200866,-6.25 1.953581,-7.89077 8.34317,-5.97615 8.34317,2.5 0,8.27222 5.9528,10.10821 12.13547,3.74288 11.46155,-11.80017 24.69592,-26.40764 26.86453,-29.65179 1.375,-2.05694 5.875,-7.22271 10,-11.47948 11.67415,-12.04709 23,-25.07061 23,-26.44755 0,-0.68734 3.16281,-4.59974 7.02847,-8.69422 10.32761,-10.93894 12.11819,-13.89169 12.87848,-21.23721 0.47364,-4.57603 1.25649,-6.89607 2.87208,-8.51166 1.22153,-1.22153 2.22097,-3.03354 2.22097,-4.02669 0,-0.99315 1.125,-3.33057 2.5,-5.19428 1.97441,-2.67616 2.5,-4.58078 2.5,-9.05942 0,-4.27307 0.52532,-6.3387 2.13124,-8.3803 1.22127,-1.55258 2.32416,-4.70571 2.58306,-7.38486 0.41437,-4.28788 1.0353,-5.21729 7.49117,-11.21273 6.15392,-5.71503 7.07754,-7.03574 7.34305,-10.5 0.25148,-3.28121 1.13329,-4.71738 5.12759,-8.35107 l 4.82389,-4.38838 0.0961,-10.01181 c 0.0925,-9.63162 0.19689,-10.08521 2.75,-11.94502 2.2407,-1.63223 2.6539,-2.68759 2.6539,-6.77839 0,-5.18595 1.75392,-7.98802 5,-7.98802 4.23383,0 5,-2.41616 5,-15.76768 0,-11.96218 0.13625,-12.82143 2.5959,-16.37071 2.32093,-3.3491 2.52823,-4.3611 1.95701,-9.55375 -0.3514,-3.19432 -0.75692,-9.18286 -0.90116,-13.30786 l -0.26226,-7.5 4.05481,-3.75 c 3.22508,-2.98264 4.87342,-3.76438 8.05526,-3.82029 6.07031,-0.10665 7.33474,-0.98797 10.54316,-7.3487 C 280.51971,561.68783 280.834,557.06474 278,554.5 c -2.4266,-2.19605 -2.60877,-6.75025 -0.3451,-8.62756 2.11215,-1.75164 4.3451,-7.06724 4.3451,-10.3436 0,-1.80656 1.86855,-4.34961 6.5,-8.84635 6.82235,-6.62392 7.70848,-8.93605 5.38181,-14.04254 -1.31075,-2.87679 0.79991,-9.46456 4.74602,-14.81322 1.96043,-2.65721 2.37217,-4.422 2.37217,-10.1675 0,-6.23936 0.34867,-7.47552 3.40038,-12.05572 4.48181,-6.72658 7.3544,-9.23215 11.59962,-10.11758 1.925,-0.4015 5.18946,-1.58523 7.25435,-2.63051 3.34761,-1.69461 5.72144,-1.87098 21.91165,-1.62796 l 18.1573,0.27254 1.08835,3.04231 c 1.5892,4.44236 6.09984,9.87967 9.88848,11.91998 3.21559,1.73171 3.41843,1.72194 7.50241,-0.36155 3.72407,-1.89988 4.19746,-2.53661 4.19746,-5.64581 0,-2.88458 0.48641,-3.70272 2.75,-4.6255 3.11773,-1.27097 11.54856,-1.39744 21.52578,-0.3229 6.29232,0.67768 7.04534,0.54294 10.55375,-1.88839 2.07788,-1.43998 4.44085,-2.61814 5.25104,-2.61814 2.02132,0 13.42754,-11.88221 20.22165,-21.06552 3.07847,-4.16104 8.88234,-10.73342 12.8975,-14.60528 17.28512,-16.66828 25.94001,-26.51636 27.97338,-31.82989 l 2.00292,-5.23396 -2.04785,-4.01412 c -1.31147,-2.5707 -3.67606,-4.96831 -6.57587,-6.66771 l -4.52802,-2.6536 -5.35863,2.53504 C 467.7184,378.85923 464.85768,380 464.3085,380 c -0.54919,0 -1.81301,0.9 -2.8085,2 -1.45363,1.60624 -3.07997,2 -8.26063,2 -5.42175,0 -6.92456,0.39876 -9.42174,2.5 -2.19065,1.84331 -4.13471,2.5 -7.40097,2.5 -3.47889,0 -4.89654,0.5367 -6.60361,2.5 -1.19555,1.375 -3.18304,2.5 -4.41666,2.5 -1.23362,0 -3.57993,1.125 -5.21402,2.5 -2.56806,2.16088 -3.94928,2.5 -10.18237,2.5 -6.23309,0 -7.61431,-0.33912 -10.18237,-2.5 -1.63409,-1.375 -3.94905,-2.50495 -5.14436,-2.51101 -1.1953,-0.006 -3.75867,-0.27336 -5.69637,-0.59402 -2.64719,-0.43806 -4.13892,-0.0851 -6,1.41966 -2.18366,1.76557 -2.5361,2.99022 -2.9769,10.34402 l -0.5,8.34135 -3.68071,0.30623 c -3.23454,0.26912 -4.21749,-0.24606 -8.10896,-4.25 C 365.2748,407.05031 362.56601,405 361.69081,405 c -0.8752,0 -3.28396,2.025 -5.3528,4.5 l -3.76153,4.5 -15.74156,0 -15.74155,0 -1.79669,2.62161 C 314.0873,424.22282 309.22648,426.11772 305.5,422 c -0.99549,-1.1 -2.30273,-1.99757 -2.90499,-1.9946 -0.60225,0.003 -3.2637,2.25296 -5.91432,5 -4.56213,4.72807 -5.09577,4.9948 -10,4.99839 l -5.18069,0.004 -8.75,8.84394 c -8.72778,8.82149 -8.75,8.85706 -8.75,14.006 0,3.92456 0.47945,5.57257 2,6.8745 1.1,0.94185 1.99715,2.17494 1.99368,2.74021 -0.006,1.0323 -3.55366,3.51554 -9.69327,6.78563 C 256.48519,470.2247 255,471.4076 255,471.88655 c 0,0.47894 -1.34383,1.42744 -2.98628,2.10777 -2.76652,1.14593 -3.26325,0.99803 -6.75,-2.00981 -2.07005,-1.78571 -4.69933,-4.38232 -5.84285,-5.77022 -1.81065,-2.1976 -2.63042,-2.44952 -6.34829,-1.95085 -2.34804,0.31494 -5.26644,1.5095 -6.48532,2.65459 -1.21889,1.14508 -2.91956,2.08197 -3.77927,2.08197 -2.68615,0 -3.9725,2.69419 -3.70377,7.75737 0.23825,4.48887 -0.0573,5.19197 -3.80593,9.0547 C 212.59417,488.59848 210.37001,490 208.6522,490 205.69811,490 204,492.46132 204,496.74313 c 0,4.17062 -2.02894,6.31771 -6.53509,6.91566 -3.35218,0.44482 -4.33956,0.1255 -6.38922,-2.06633 C 189.74231,500.16661 187.8905,499 186.96054,499 c -0.92995,0 -2.97629,-1.0125 -4.54742,-2.25 -2.62232,-2.06547 -4.18264,-2.29101 -19.02513,-2.75 l -16.16854,-0.5 -4.52574,-6.02551 C 137.45296,480.49701 127.71974,471 125.80949,471 c -0.72063,0 -4.46007,0.66719 -8.30986,1.48264 -3.8498,0.81545 -9.15948,1.49045 -11.79929,1.5 C 100.86816,474.00012 95,476.21736 95,478.02568 95,478.56156 92.156151,479 88.680335,479 83.185686,479 82.076897,478.67363 80.186949,476.5 78.991402,475.125 77.142394,474 76.078042,474 73.296042,474 71,471.30489 71,468.03936 c 0,-3.8636 -2.443188,-6.45637 -9.5,-10.08163 -4.133063,-2.12326 -8.022515,-3.25561 -12.5,-3.63915 -5.478505,-0.4693 -7.010748,-1.04037 -9.75,-3.63386 L 36,447.60767 36,437.45882 C 36,424.73517 35.419422,424 25.371259,424 17.653903,424 16,423.07524 16,418.76016 c 0,-1.56191 -0.863276,-4.532 -1.91839,-6.60019 -1.055115,-2.0682 -2.331926,-6.03558 -2.837358,-8.81642 C 10.20857,397.64535 4.8160712,390 1.8326355,390 0.4048616,390 0,389.22679 0,386.5 0,383.70735 0.39057919,383 1.9326123,383 2.9955491,383 4.1500281,382.10266 4.4981211,381.00592 5.9654189,376.38287 7.3414861,376 22.489641,376 c 7.890731,0 15.053703,-0.27127 15.917715,-0.60282 2.027154,-0.77789 3.840439,-7.51569 2.989861,-11.10971 -0.362832,-1.53311 -1.53505,-3.7531 -2.604928,-4.93332 -1.220866,-1.34678 -1.823661,-3.20868 -1.618761,-5 0.304618,-2.66309 0.68516,-2.89016 5.684853,-3.39213 C 48.382777,350.40738 51,348.45404 51,344.8856 c 0,-0.95268 1.125,-3.06914 2.5,-4.70323 1.375,-1.6341 2.5,-3.23488 2.5,-3.55731 0,-0.32242 1.528385,-2.97548 3.396411,-5.89567 C 63.30519,324.61898 72.893386,316 75.782132,316 77.920143,316 86,307.86834 86,305.71662 c 0,-0.73043 1.125,-2.85291 2.5,-4.71662 1.375,-1.86371 2.5,-4.10981 2.5,-4.99133 0,-0.88153 1.701457,-3.2642 3.781016,-5.29484 2.906153,-2.83778 4.895589,-3.84483 8.598024,-4.35231 3.15342,-0.43222 5.56232,-1.46402 6.97509,-2.98763 1.87339,-2.02037 3.23099,-2.35854 10.29118,-2.56343 7.43228,-0.21569 8.47296,-5e-4 12.07742,2.49739 3.43593,2.38111 5.02916,2.76299 12.3608,2.96279 4.62906,0.12615 11.18938,-0.14773 14.57849,-0.60862 5.3828,-0.732 6.35652,-0.60555 7.7,1 7.08271,8.46428 8.62204,9.60225 12.20283,9.02117 1.93148,-0.31344 4.87907,-1.72038 6.55019,-3.12654 1.67113,-1.40616 3.6182,-2.55665 4.32683,-2.55665 0.70863,0 2.43258,-0.9 3.831,-2 2.05578,-1.61708 4.05678,-2 10.4512,-2 7.00827,0 16.49945,-1.15465 21.50342,-2.616 0.95013,-0.27747 3.53165,-2.01182 5.73673,-3.8541 2.49397,-2.08366 5.6205,-3.60841 8.2725,-4.03437 2.3448,-0.37661 5.61328,-1.35629 7.26328,-2.17706 1.65,-0.82077 4.97623,-1.79069 7.39163,-2.15539 2.4154,-0.36469 4.70521,-1.33808 5.08847,-2.16308 3.02792,-6.51783 3.95245,-7.60389 8.43801,-9.91225 4.37515,-2.25153 6.61293,-2.60472 20.752,-3.27538 8.71642,-0.41344 16.78322,-1.25221 17.92622,-1.86393 3.01089,-1.61138 7.84017,-7.17761 7.87436,-9.076 0.0676,-3.75403 1.8134,-3.92372 40.36642,-3.92372 l 37.57038,0 2.94061,-2.47436 c 1.61734,-1.3609 4.03471,-2.47436 5.37194,-2.47436 1.33723,0 3.48821,-1.125 4.77996,-2.5 2.16821,-2.30796 3.04085,-2.5 11.35986,-2.5 7.86022,0 9.30521,0.27618 11.31276,2.16216 1.75406,1.64786 4.04366,2.30467 9.62556,2.76123 4.67109,0.38207 8.37662,1.28873 10.22987,2.50304 2.63596,1.72714 5.5093,1.94555 30.93889,2.35172 26.81175,0.42825 28.13346,0.5398 30.33759,2.56035 1.96122,1.79787 4.12127,2.22576 14.5,2.87234 19.92254,1.24115 26.55015,2.71496 33.54012,7.45849 1.88895,1.28187 3.84461,2.33067 4.34592,2.33067 0.50132,0 1.5567,1.54423 2.34531,3.43162 0.7886,1.88739 1.85781,3.69366 2.37601,4.01393 0.51821,0.32027 1.49609,2.26354 2.17306,4.31838 0.67697,2.05484 2.03771,4.86107 3.02387,6.23607 1.43502,2.00085 1.92568,5.39504 2.4575,17 0.45728,9.97866 1.25213,16.28311 2.54908,20.21845 1.03653,3.14515 1.8846,7.72313 1.8846,10.17328 0,3.11325 0.67759,5.30847 2.25,7.28945 1.2375,1.55905 2.74595,3.73108 3.35211,4.82673 0.69617,1.25836 2.50406,2.17625 4.90841,2.49209 3.33754,0.43842 4.14809,1.11578 6.58144,5.5 1.52633,2.75 2.80504,6.60007 2.84159,8.55572 0.04,2.13885 1.06264,4.90598 2.56645,6.94428 1.375,1.86371 2.5,4.03025 2.5,4.81455 0,2.173 4.95759,9.69602 10.16101,15.41906 2.56355,2.81955 4.93297,6.48631 5.26538,8.14835 0.33241,1.66204 1.55833,4.03733 2.72428,5.27842 1.91711,2.04067 2.13086,3.48013 2.23461,15.04807 0.10731,11.96523 -0.054,13.11455 -2.49775,17.79155 -4.43465,8.48744 -6.71605,13.8524 -7.44174,17.5 -0.96743,4.86273 -6.52414,10.87854 -18.93553,20.5 -2.12845,1.65 -6.22606,5.25 -9.1058,8 -2.87974,2.75 -8.86179,7.66381 -13.29345,10.91958 -4.43165,3.25576 -10.77226,8.60084 -14.09025,11.87794 -3.31798,3.2771 -7.94251,7.19333 -10.27673,8.70274 -2.33421,1.5094 -5.14403,3.60462 -6.24403,4.65603 -3.25229,3.10865 -13.73934,12.50091 -19.36534,17.34371 -2.87527,2.475 -6.7231,5.175 -8.55074,6 -1.82764,0.825 -4.6214,2.625 -6.20836,4 C 504.34018,536.49641 499,544.87914 499,547.71725 c 0,1.3059 -1.125,4.48767 -2.5,7.0706 -2.11738,3.97749 -2.5,6.03296 -2.5,13.43028 l 0,8.73405 -6.0123,5.90137 c -3.54891,3.48343 -7.22135,6.14318 -8.96317,6.49154 -2.12323,0.42465 -3.59225,1.74522 -5.23769,4.7084 -6.93852,12.49517 -8.48706,14.64209 -11.08947,15.37468 -2.87849,0.8103 -8.69737,8.17352 -8.69737,11.00565 0,3.01121 -3.50602,6.07997 -11.59735,10.15095 -6.24842,3.14376 -7.51548,3.41523 -15.94033,3.41523 -12.57382,0 -12.89055,0.38128 -12.23201,14.72482 0.69111,15.05306 0.56653,15.27518 -8.56764,15.27518 -7.04541,0 -7.60104,0.17333 -12.0209,3.75 l -4.63406,3.75 -0.004,14.07377 C 389.00054,697.6847 388.65133,700.81245 386.5,708 c -1.375,4.59385 -2.5,9.78113 -2.5,11.52729 0,3.66329 3.86364,11.41444 8.08772,16.2254 1.60175,1.8243 2.91228,3.79277 2.91228,4.37438 0,0.58161 0.9,2.20164 2,3.60006 2.72782,3.46786 2.51299,6.97402 -0.83386,13.60919 C 393.44882,762.72344 387.13823,769 384.43922,769 c -0.70717,0 -2.59334,1.10025 -4.19148,2.44499 -2.21449,1.86337 -4.29944,2.51755 -8.76459,2.75 -5.67755,0.29557 -5.92895,0.42881 -8.1233,4.30501 -2.58318,4.56306 -3.14232,5.71991 -4.9715,10.28599 -1.95523,4.88074 -6.77052,6.58368 -17.94156,6.34509 l -9.0532,-0.19336 -6.1968,5.95169 C 319.58638,806.27791 319,807.22712 319,810.92055 319,817.13589 316.55786,819 308.41525,819 l -6.58475,0 -11.53142,11.75 c -6.34229,6.4625 -23.7951,24.125 -38.78403,39.25 C 223.62138,898.14689 219,903.49979 219,907.66189 219,910.1913 211.64882,919 209.53794,919 c -0.66404,0 -2.4102,-1.35 -3.88036,-3 -4.16626,-4.67592 -7.10794,-4.07856 -13.54249,2.75 -2.98002,3.1625 -6.23919,7.59042 -7.24259,9.83981 -2.45888,5.51223 -11.83815,15.07118 -12.99586,13.24482 -0.46531,-0.73405 -0.85291,-2.25713 -0.86133,-3.38463 -0.008,-1.1275 -0.55531,-2.59 -1.21531,-3.25 -1.31741,-1.31741 -6.71241,-1.59986 -8.30281,-0.43469 C 159.881,935.94937 155,943.49757 155,944.81285 c 0,0.66295 -1.35,2.618 -3,4.34457 -1.66778,1.74517 -3,4.23044 -3,5.59654 0,1.35153 -1.125,3.79431 -2.5,5.42841 -1.82752,2.17188 -2.5,4.14027 -2.5,7.31763 0,3.24334 -0.67283,5.14616 -2.65089,7.49695 -2.64639,3.14506 -2.64995,3.17279 -2.09959,16.32673 0.30322,7.24698 0.2488,13.97502 -0.12092,14.95122 -0.36973,0.9762 -2.68741,3.1117 -5.15041,4.7457 -3.63569,2.4119 -5.51293,2.9638 -9.97819,2.9335 -4.77893,-0.033 -5.99164,-0.4719 -9.25,-3.3517 z M 201.18237,898.5 c 1.63409,-1.375 3.63835,-2.5 4.4539,-2.5 0.81555,0 3.50141,-1.68733 5.96857,-3.74963 4.10677,-3.43283 4.46081,-4.08761 4.19046,-7.75 -0.2389,-3.23639 -0.71158,-4.05964 -2.47506,-4.31072 -3.36065,-0.47847 -11.37614,4.69825 -17.09934,11.04344 -5.15211,5.71204 -5.80198,8.18922 -2.38576,9.09398 3.35991,0.88985 4.43653,0.62212 7.34723,-1.82707 z m -41.52738,82.67126 c -2.30403,-2.54592 -2.16683,-3.06366 2.30275,-8.68959 2.17676,-2.73992 4.93102,-6.24336 6.12058,-7.78542 1.406,-1.82266 2.90796,-2.69746 4.29225,-2.5 1.84588,0.2633 2.12063,0.94314 2.06334,5.10555 -0.0533,3.87618 -0.58345,5.28154 -2.75,7.29047 -1.47615,1.36877 -2.68391,2.8356 -2.68391,3.25964 0,1.54026 -4.12354,5.14809 -5.88397,5.14809 -0.99333,0 -2.5508,-0.82293 -3.46104,-1.82874 z m 2.79479,-28.25252 C 161.48182,951.35255 166.98412,946 169.56209,946 c 1.65907,0 2.34182,0.76954 2.82465,3.18372 0.41675,2.08375 0.20081,3.46046 -0.625,3.98469 -1.86128,1.18156 -8.53805,1.00254 -9.31196,-0.24967 z m 21.0022,-2.35168 c -1.70194,-2.59749 -1.0709,-4.97859 1.99342,-7.52175 3.36532,-2.79296 6.04199,3.30695 3.51942,8.02043 -1.40697,2.62894 -3.59312,2.43118 -5.51284,-0.49868 z M 1257,846.5 c -1.8637,-1.375 -4.5386,-2.50689 -5.9443,-2.51531 -3.2316,-0.0194 -3.9647,-0.57825 -7.1943,-5.48469 -2.3429,-3.55934 -2.6957,-5.27785 -3.2024,-15.59947 -0.4046,-8.2404 -1.1617,-13.10173 -2.6143,-16.78702 -2.4335,-6.17391 -2.7153,-12.91894 -0.5741,-13.7406 0.8088,-0.31038 2.6695,0.37874 4.1349,1.53138 2.2406,1.76248 4.0461,2.09571 11.355,2.09571 7.9773,0 8.8837,0.20527 11.0395,2.5 1.9804,2.10803 3.2558,2.5 8.1349,2.5 3.416,0 6.2059,-0.51204 6.8106,-1.25 5.9403,-7.24884 6.4264,-8.19007 6.8465,-13.25511 0.4015,-4.84201 0.2145,-5.44453 -2.1764,-7.01108 -3.4621,-2.26845 -3.3496,-6.03091 0.308,-10.30589 2.3414,-2.73656 3.4312,-3.26532 6.1832,-3 2.8557,0.27532 3.4898,0.83371 4.367,3.84603 0.5644,1.93817 2.5391,4.96009 4.3883,6.71539 l 3.3621,3.19144 3.6379,-2.70948 c 2.0008,-1.49021 3.9729,-3.2303 4.3824,-3.86685 0.4095,-0.63656 3.2152,-2.55172 6.2349,-4.25591 4.4395,-2.5055 6.6328,-3.09854 11.4596,-3.09854 5.9265,0 5.9949,-0.0334 9.5152,-4.6438 2.532,-3.31612 3.5502,-5.67483 3.5611,-8.25 0.019,-4.58856 0.9458,-6.00136 4.5699,-6.97035 3.6266,-0.96964 8.0511,-7.20208 8.9704,-12.63585 1.0465,-6.18602 1.9202,-7.1563 7.0808,-7.86364 4.7725,-0.65415 8.3636,-2.89314 8.3636,-5.21462 0,-0.69756 1.125,-2.60528 2.5,-4.23937 3.0193,-3.58827 3.0225,-3.63987 0.4445,-7.26033 -1.5342,-2.15463 -1.978,-4.09578 -1.75,-7.65437 0.2899,-4.5237 0.4711,-4.79326 3.5409,-5.26767 2.1023,-0.32489 4.9041,-2.15376 8,-5.22203 2.6205,-2.59711 7.4024,-7.09711 10.6265,-10 6.7673,-6.09327 12.6381,-14.40659 12.6381,-17.89628 0,-1.32622 0.9,-4.09051 2,-6.14287 2.2092,-4.12182 2.5987,-10.7228 0.9175,-15.54564 -0.8838,-2.53527 -0.7555,-3.65877 0.6987,-6.12068 2.4592,-4.16298 5.2986,-4.84641 17.0824,-4.11154 7.9041,0.49293 10.6592,1.05288 12.246,2.48888 1.5471,1.40015 4.1338,1.96475 10.587,2.31083 7.9276,0.42515 8.8222,0.27096 12.4826,-2.15135 2.1686,-1.43513 4.593,-2.60932 5.3876,-2.60932 0.7946,0 2.7817,-1.125 4.4158,-2.5 1.6341,-1.375 3.5935,-2.5 4.3542,-2.5 0.7608,0 4.5084,-2.25 8.3282,-5 3.8198,-2.75 7.1993,-5 7.5101,-5 1.3905,0 24.0003,-22.66667 23.9954,-24.05572 0,-0.85565 1.1195,-3.08057 2.4945,-4.94428 4.1874,-5.67569 3.0124,-12.41441 -3.1607,-18.12781 C 1510.3586,564.26248 1509.024,564 1490.5657,564 c -16.2324,0 -17.7175,0.15181 -19.5657,2 -1.1766,1.1766 -2.0804,3.54388 -2.1952,5.75 -0.1074,2.0625 -0.2683,5.46306 -0.3576,7.55681 -0.1389,3.25827 -1.1173,4.77126 -6.7898,10.5 -3.645,3.68125 -7.1966,7.41064 -7.8924,8.28752 -0.6957,0.87689 -5.1757,4.81439 -9.9554,8.75 -11.0374,9.08819 -12.9483,9.28522 -20.7576,2.14024 -2.9964,-2.74151 -5.9913,-4.98457 -6.6554,-4.98457 -0.664,0 -3.0601,-1.54789 -5.3245,-3.43976 -5.3122,-4.43824 -7.5812,-5.11193 -10.5859,-3.14317 -1.5711,1.02941 -4.6648,1.58293 -8.8474,1.58293 -6.1863,0 -6.5559,-0.14305 -9.6893,-3.75 -4.8018,-5.52741 -6.4961,-6.17529 -16.2526,-6.21456 -7.7088,-0.031 -9.2603,-0.34618 -12.4821,-2.53544 -2.0235,-1.375 -4.1583,-2.5 -4.744,-2.5 -0.5857,0 -2.8437,-1.83137 -5.0179,-4.06972 -2.1741,-2.23835 -7.1501,-5.61335 -11.0578,-7.5 -5.8647,-2.83148 -8.2449,-3.43028 -13.635,-3.43028 -5.8619,0 -6.6977,-0.2558 -8.1681,-2.5 -1.4379,-2.19445 -2.3521,-2.5 -7.4802,-2.5 -6.2423,0 -10.3865,-2.13953 -11.6098,-5.9938 -0.7269,-2.29003 -8.8319,-8.0062 -11.3521,-8.0062 -2.6356,0 -4.1499,-2.0353 -4.1499,-5.57756 0,-3.94354 -1.0765,-4.7863 -8.018,-6.27701 -3.0349,-0.65176 -6.9724,-2.06949 -8.75,-3.15052 -2.8515,-1.73414 -3.232,-2.48108 -3.232,-6.34535 0,-2.86565 0.6914,-5.25886 2,-6.92243 2.3863,-3.03369 2.5517,-7.1625 0.485,-12.10871 -1.4365,-3.43807 -1.3861,-3.88015 0.9737,-8.53688 1.9039,-3.75711 3.1838,-5.06375 5.4474,-5.56093 2.7855,-0.61178 10.0939,-8.07048 10.0939,-10.3014 0,-0.51931 1.35,-2.64295 3,-4.71921 1.65,-2.07626 3,-4.35361 3,-5.06078 0,-0.70717 1.0634,-2.5578 2.3632,-4.11249 1.2997,-1.5547 2.6674,-3.79955 3.0394,-4.98855 0.6735,-2.15317 8.1777,-8.91335 12.0581,-10.86262 1.7159,-0.86197 2.1186,-2.26278 2.5393,-8.833 0.3975,-6.2081 0.8979,-8.09899 2.4411,-9.22556 3.1295,-2.28446 4.6701,-1.70698 9.5589,3.583 5.3719,5.81267 8.711,6.49766 12.1869,2.5 1.2524,-1.44035 3.263,-2.50649 4.7434,-2.51531 3.8425,-0.0229 5.2844,-1.36853 5.9671,-5.56876 0.5369,-3.30302 1.0672,-3.9086 4.1095,-4.69302 1.9212,-0.49536 4.2456,-1.70432 5.1654,-2.68659 0.9198,-0.98226 3.8359,-2.11038 6.4802,-2.50691 2.6443,-0.39654 6.0112,-1.57788 7.482,-2.6252 1.4708,-1.04731 4.2645,-1.90421 6.2082,-1.90421 2.5682,0 4.4388,-0.84435 6.8456,-3.08996 7.0489,-6.57697 6.1246,-6.38091 31.765,-6.7377 l 23.5467,-0.32765 4.5031,-4.67235 C 1439.6448,398.24349 1453.7769,386 1455.2871,386 c 0.7886,0 3.1281,-1.14975 5.1988,-2.55501 3.616,-2.4539 4.351,-2.55546 18.5721,-2.56622 11.962,-0.009 15.0473,-0.30075 16.0576,-1.51808 0.6878,-0.82878 1.4494,-5.29387 1.6923,-9.92242 0.6013,-11.45632 1.9336,-12.89578 12.8143,-13.84491 5.2788,-0.46048 8.9851,-1.35498 10.9321,-2.63843 1.6201,-1.06796 4.162,-1.94472 5.6486,-1.94834 1.4867,-0.004 3.86,-0.53374 5.274,-1.17803 2.5525,-1.16299 2.843,-1.82249 4.0194,-9.12458 0.4258,-2.64268 1.2788,-4.0575 2.8076,-4.65665 1.2079,-0.47335 4.5714,-1.82064 7.4745,-2.99398 3.5109,-1.41902 6.357,-1.93399 8.5,-1.53797 1.7719,0.32745 9.2966,0.15911 16.7216,-0.3741 14.7417,-1.05863 25.4405,-3.81888 30.3267,-7.82419 2.5307,-2.07443 3.8398,-2.31382 12.5,-2.28588 8.4996,0.0274 10.1586,0.33014 13.6733,2.49488 2.2,1.35501 5.3028,2.46597 6.8951,2.46879 4.1356,0.007 17.3551,-6.58146 22.3326,-11.13083 3.9852,-3.6425 4.5946,-3.86405 10.6275,-3.86405 4.7355,0 6.7568,0.43039 7.7724,1.6549 2.9246,3.52653 7.0667,4.28699 19.8498,3.64426 10.8813,-0.54711 12.5553,-0.87653 15.0283,-2.95742 2.4033,-2.02226 3.8585,-2.34174 10.6661,-2.34174 5.2432,0 8.5718,0.48229 9.9393,1.44016 1.1309,0.79208 6.9672,2.01103 12.9697,2.70876 8.7363,1.01552 11.2684,1.67585 12.6921,3.30985 13.8755,15.92527 17.7271,20.52465 17.7271,21.16852 0,0.89649 4.452,7.64152 7.7221,11.69944 1.2528,1.55469 2.2811,3.57969 2.285,4.5 0,0.9203 1.8081,3.47327 4.0092,5.67327 6.4743,6.47095 15.9837,20.22488 15.9837,23.11803 0,1.83837 -1.5313,4.03312 -5.25,7.52449 l -5.25,4.92909 0,13.49816 c 0,10.72128 -0.2988,13.68331 -1.4523,14.39821 -0.7987,0.49503 -1.798,0.68636 -2.2206,0.42517 -1.249,-0.77193 -6.4854,2.35701 -8.7388,5.22173 -1.548,1.96801 -2.0926,4.10753 -2.1048,8.26998 -0.017,5.8229 -2.8822,12.61381 -5.9835,14.18174 -2.2747,1.15003 -11.3665,2.70978 -22.5,3.86003 -15.1088,1.56094 -20.2595,2.5507 -22.2187,4.26949 -0.9797,0.85949 -3.1313,2.26696 -4.7813,3.12773 -1.65,0.86076 -5.1358,3.61503 -7.7463,6.12059 -2.6104,2.50556 -5.335,4.55556 -6.0545,4.55556 -1.5216,0 -8.4148,6.10664 -10.6601,9.44352 -0.8465,1.25813 -2.8295,4.22295 -4.4067,6.58849 C 1688.122,500.79644 1652.5441,534 1648.5918,534 c -1.1104,0 -6.812,5.53673 -23.9877,23.29389 -3.0822,3.18664 -5.6041,6.69171 -5.6041,7.78903 0,2.27599 -7.125,9.91708 -9.2473,9.91708 -0.7722,0 -2.495,1.18599 -3.8284,2.63553 -1.3334,1.44955 -4.2243,3.94984 -6.4243,5.5562 -2.2,1.60637 -6.9738,5.82038 -10.6084,9.36447 -3.6346,3.54409 -7.0222,6.4438 -7.528,6.4438 -1.2107,0 -13.5302,10.17233 -19.9829,16.5 -2.8044,2.75 -7.6298,7.4347 -10.7233,10.41044 -3.0935,2.97574 -5.9185,6.35074 -6.2778,7.5 -0.3593,1.14926 -1.7167,3.36159 -3.0164,4.91629 -1.2998,1.55469 -2.3632,3.39745 -2.3632,4.09501 0,0.69756 -0.9,2.08277 -2,3.07826 -1.1,0.99549 -2,2.62457 -2,3.62019 0,0.99562 -1.2375,3.28838 -2.75,5.09501 -4.553,5.43842 -7.1259,9.44201 -7.8039,12.14347 -0.3533,1.40761 -1.2992,3.10443 -2.102,3.77071 -0.8028,0.66627 -2.0869,2.71259 -2.8535,4.54737 -1.7003,4.06931 -5.8741,7.88128 -10.2703,9.37993 -2.5594,0.87248 -3.9321,2.41033 -6.25,7.00216 -1.6337,3.23627 -2.9703,6.92183 -2.9703,8.19014 0,5.45921 -6.4992,9.75102 -14.7663,9.75102 -3.6023,0 -5.7323,0.60432 -7.7648,2.2031 -1.7762,1.3972 -4.964,2.45816 -8.7143,2.90036 -3.9106,0.4611 -6.6706,1.40842 -8.1485,2.79691 -1.5855,1.48943 -3.5403,2.09963 -6.7263,2.09963 -3.1581,0 -5.4474,0.7054 -7.7124,2.37649 -1.7716,1.30707 -4.9517,2.65321 -7.0668,2.99143 -2.9726,0.47535 -4.6843,1.63843 -7.5401,5.12351 -3.6014,4.39513 -3.8393,4.50857 -9.4531,4.50857 -4.8497,0 -6.1295,0.39464 -8.1074,2.5 -1.296,1.37948 -3.4742,2.5 -4.8599,2.5 -1.3811,0 -3.4427,0.87511 -4.5812,1.94468 -2.6437,2.4836 -13.0466,8.05532 -15.04,8.05532 -0.8354,0 -2.5309,1.01201 -3.7678,2.24892 -1.2369,1.23691 -3.4581,2.92441 -4.936,3.75 -1.4779,0.82559 -5.0784,3.11463 -8.0011,5.08675 -2.9227,1.97212 -7.564,4.98852 -10.314,6.70311 -5.7741,3.60006 -8.8921,5.87862 -11.9881,8.7606 -3.6174,3.36736 -10.8277,8.45062 -11.9866,8.45062 -1.1548,0 -16.7791,15.36141 -21.0625,20.7081 -1.517,1.89356 -2.898,5.28248 -3.3703,8.27058 -0.4402,2.78436 -0.9786,5.19894 -1.1964,5.36573 -4.0518,3.10223 -7.3372,4.59469 -11.416,5.18595 -6.4508,0.93513 -7.4801,1.86698 -7.4801,6.7722 0,3.53704 -0.5926,4.60953 -4.6187,8.35884 C 1278.715,848.59425 1264.502,852.03482 1257,846.5 z M 107.12173,833.64667 c -0.69644,-0.83915 -1.12123,-2.79044 -0.94399,-4.3362 0.4256,-3.71169 4.58381,-4.32851 8.82433,-1.309 3.39144,2.41492 4.0623,5.99853 1.12293,5.99853 -1.03125,0 -3.19396,0.26379 -4.80601,0.5862 -1.98303,0.39661 -3.34056,0.0927 -4.19726,-0.93953 z m 10.4497,-31.2181 c -1.99397,-1.99397 -1.99715,-3.83037 -0.009,-5.47998 3.79238,-3.14739 8.43812,-11.70506 8.44284,-15.5521 0.004,-3.0448 0.75761,-4.71615 3.44901,-7.64649 3.54656,-3.86139 4.9796,-4.39397 7.51254,-2.79197 1.25407,0.79316 1.1455,1.49826 -0.75,4.87084 -1.24075,2.20762 -2.21633,5.66875 -2.21633,7.863 0,2.61059 -0.8349,5.05121 -2.5,7.30813 -1.375,1.86371 -2.5,4.15452 -2.5,5.09069 0,1.95208 -6.37454,7.90931 -8.46337,7.90931 -0.76657,0 -2.10092,-0.70714 -2.9652,-1.57143 z M 96.606989,801.41821 C 96.273145,800.54823 96,797.46797 96,794.5732 c 0,-4.04312 0.477203,-5.69509 2.058536,-7.12617 3.315414,-3.00041 5.380524,-0.88499 5.740594,5.88043 0.16452,3.09124 -0.18882,6.53216 -0.78519,7.64649 -1.29309,2.41616 -5.537329,2.71046 -6.406951,0.44426 z M 1215.5293,788.04741 c -1.1744,-1.90024 0.5402,-5.02676 3.1106,-5.67187 3.0775,-0.77241 4.6381,0.62607 4.1948,3.75912 -0.2595,1.83397 -1.0437,2.43416 -3.4909,2.6717 -1.7358,0.1685 -3.4524,-0.17303 -3.8145,-0.75895 z m 64.5777,-25.4185 c -1.5934,-1.91995 -0.257,-4.72978 4.025,-8.46268 3.7696,-3.28615 8.2681,-4.17198 9.1757,-1.80684 0.5017,1.30759 -9.4683,11.64061 -11.2318,11.64061 -0.457,0 -1.3431,-0.61699 -1.9689,-1.37109 z M 121.40855,757.62228 c -0.87545,-2.2814 -0.10946,-4.78139 1.84145,-6.00998 2.56521,-1.61545 5.25,0.42841 5.25,3.99669 0,2.53199 -0.40445,2.92999 -3.25688,3.20488 -2.19612,0.21165 -3.44502,-0.17645 -3.83457,-1.19159 z m 46.25812,-13.28895 c -2.20215,-2.20214 1.78,-7.33333 5.69116,-7.33333 2.2305,0 2.84587,3.04017 1.1418,5.6409 -1.46382,2.23408 -5.33298,3.19242 -6.83296,1.69243 z m 1157.27953,-8.90303 -3.4462,-3.5697 3.2658,-2.9303 c 2.759,-2.47557 4.1039,-2.9303 8.6666,-2.9303 4.7363,0 5.6489,-0.33835 7.4171,-2.75 2.8147,-3.83887 4.3556,-2.02559 3.5116,4.13223 -0.9018,6.57911 -6.0514,11.59655 -11.9149,11.6091 -3.3437,0.007 -4.6576,-0.6167 -7.5,-3.56103 z m 34.5184,-44.54181 c -0.7585,-2.38998 1.6757,-5.53786 3.4394,-4.4478 0.6028,0.37254 1.096,2.00079 1.096,3.61833 0,2.24013 -0.4606,2.94098 -1.9326,2.94098 -1.0884,0 -2.2254,-0.92239 -2.6028,-2.11151 z M 1161.6667,508.33333 C 1161.3,507.96667 1161,503.01897 1161,497.33846 l 0,-10.32821 4.5127,-2.12125 c 2.4821,-1.16668 4.7586,-2.51899 5.0591,-3.00512 0.3004,-0.48613 2.4573,-0.88388 4.7929,-0.88388 2.9596,0 5.2738,-0.75775 7.6353,-2.5 1.8637,-1.375 4.6166,-2.5 6.1176,-2.5 1.5009,0 4.001,-1.05649 5.5557,-2.34776 2.7501,-2.28419 6.2203,-4.34213 11.3267,-6.71725 1.375,-0.63954 3.4,-1.58329 4.5,-2.09721 6.1821,-2.88829 9.9155,-5.69921 18.1316,-13.65153 5.179,-5.01269 8.2676,-5.28669 9.8144,-0.87069 0.8228,2.34921 0.5095,3.67428 -1.8919,8 -3.4671,6.2455 -8.1026,10.68444 -11.1575,10.68444 -1.2337,0 -3.5801,1.125 -5.2142,2.5 -2.5394,2.13676 -3.9712,2.5 -9.8542,2.5 -8.1441,0 -11.0586,1.56417 -11.5158,6.18016 -0.2442,2.46569 -0.9672,3.3905 -3.3124,4.23699 -1.65,0.59557 -4.125,1.82349 -5.5,2.72872 -1.375,0.90524 -3.625,1.97096 -5,2.36829 -1.375,0.39732 -3.3037,1.42857 -4.286,2.29167 -0.9823,0.8631 -3.643,1.82238 -5.9127,2.13172 -3.5167,0.47929 -4.466,1.15383 -6.4207,4.56245 -1.2616,2.2 -2.3134,5.18936 -2.3372,6.64301 -0.024,1.45629 -0.7536,2.91555 -1.6252,3.25 -1.9586,0.75158 -1.9399,0.75199 -2.7515,-0.0597 z m -10.1525,-29.69927 c -1.3262,-0.96977 -1.6311,-2.03205 -1.1423,-3.97972 0.6505,-2.59158 3.1909,-4.36976 11.6281,-8.13917 1.925,-0.86001 4.175,-2.00601 5,-2.54667 5.6076,-3.6749 11,-3.69178 11,-0.0344 0,2.17248 -8.4981,10.06593 -10.837,10.06593 -0.8555,0 -3.1547,1.07317 -5.1092,2.38481 -4.6585,3.12617 -8.2826,3.89959 -10.5396,2.24925 z M 1509.615,346.53518 c -2.913,-4.44575 -2.1895,-5.68169 3.126,-5.33997 5.3682,0.34511 6.733,2.51859 3.6917,5.87919 -2.3691,2.61774 -4.8793,2.41921 -6.8177,-0.53922 z m -71.5491,-17.23547 c -2.1466,-0.28371 -5.1461,-1.9624 -8,-4.47726 -6.9791,-6.14986 -15.0367,-9.38219 -25.171,-10.09737 -7.8628,-0.55489 -8.8295,-0.8631 -11.9741,-3.81757 -6.637,-6.2357 -8.5102,-6.8997 -19.4765,-6.90377 -9.1527,-0.003 -10.36,-0.22825 -13.4443,-2.50374 -1.8637,-1.375 -3.8943,-2.5 -4.5125,-2.5 -2.3523,0 -9.4875,-6.4453 -9.4875,-8.5702 0,-1.17821 -1.5956,-4.23191 -3.5458,-6.786 l -3.5458,-4.6438 -8.5311,0 c -8.0958,0 -8.6803,-0.14916 -11.4542,-2.92308 -2.4902,-2.49016 -2.9231,-3.70246 -2.9231,-8.18555 0,-4.08107 0.5051,-5.80013 2.25,-7.65748 1.9383,-2.06322 2.25,-3.48099 2.25,-10.23389 0,-6.7529 -0.3117,-8.17067 -2.25,-10.23389 -3.0618,-3.25916 -2.9609,-8.41401 0.25,-12.76611 1.4207,-1.92565 2.5,-4.74879 2.5,-6.53929 0,-1.88074 0.8062,-3.8803 2,-4.96071 1.1,-0.99549 2,-3.05809 2,-4.58356 0,-3.49435 2.3565,-5.90503 5.8214,-5.9553 4.587,-0.0665 18.0372,-4.48039 20.4141,-6.69911 1.2455,-1.16257 3.502,-2.37213 5.0145,-2.6879 1.5125,-0.31577 3.7979,-0.78834 5.0786,-1.05015 3.1809,-0.65028 4.6714,-4.43791 4.6714,-11.87103 0,-3.53007 0.5225,-6.7755 1.2,-7.45295 0.66,-0.66 3.1439,-1.2 5.5199,-1.2 4.2521,0 11.0882,-3.28033 12.9641,-6.22089 0.4488,-0.70351 1.716,-1.77516 2.816,-2.38144 1.5777,-0.86958 2.1056,-2.45316 2.5,-7.5 l 0.5,-6.39767 19,-0.60405 c 26.2084,-0.83322 28.3871,-1.34829 40.6191,-9.60318 l 6.6192,-4.46695 4.091,2.08709 c 3.0323,1.54698 5.9775,2.08962 11.3809,2.09686 5.5118,0.007 8.5093,0.57646 12.2898,2.3332 2.75,1.27788 6.244,2.63369 7.7645,3.01291 3.0764,0.76729 13.8313,10.00102 14.9563,12.84082 1.2744,3.21716 5.308,4.34129 10.594,2.95246 5.2818,-1.38772 7.1852,-3.29978 7.1852,-7.21784 0,-4.84685 1.6992,-5.3016 17.1787,-4.59744 l 14.1031,0.64155 4.5355,4.47157 c 7.3531,7.24946 13.2494,7.2318 21.8422,-0.0654 5.0897,-4.3223 5.2604,-4.38158 12.6151,-4.38158 5.7518,0 8.0007,0.42564 9.8405,1.86244 1.3117,1.02434 3.5012,2.21261 4.8656,2.6406 1.3643,0.42798 3.6143,1.56988 5,2.53754 2.0441,1.42752 5.5374,1.87118 18.5193,2.35198 17.2434,0.63865 18.472,1.0106 22.8918,6.93042 1.8426,2.46794 1.9015,3.06285 0.6867,6.93821 -2.1432,6.83695 -2.5694,26.05462 -0.6825,30.77051 1.6223,4.05459 1.4291,5.15593 -1.9242,10.9683 -1.5173,2.62997 -2.039,15.61624 -0.7065,17.58608 0.4041,0.59734 3.7722,2.77357 7.4847,4.83606 5.8312,3.23953 6.75,4.13081 6.75,6.54756 0,1.99521 -1.1481,3.83477 -4.0029,6.41394 -2.2016,1.989 -4.4316,3.61636 -4.9556,3.61636 -1.2527,0 -7.5841,4.25627 -12.2915,8.26298 -3.0334,2.58191 -3.75,3.8721 -3.75,6.752 0,2.94385 -0.8564,4.40377 -4.947,8.43279 -4.3431,4.27787 -5.6381,4.96639 -10.6095,5.64102 -3.5222,0.47798 -6.496,1.5514 -7.8675,2.83982 -1.2127,1.13927 -2.993,2.07139 -3.9562,2.07139 -2.0355,0 -5.8264,1.84898 -6.7742,3.30412 -0.36,0.55258 -3.2127,1.35186 -6.3394,1.77616 -3.1267,0.4243 -6.5583,1.5619 -7.6258,2.528 -1.142,1.03348 -4.5591,2.07173 -8.3012,2.52223 -3.4981,0.42114 -7.872,1.68737 -9.7197,2.81386 -2.0728,1.2637 -5.0899,2.04959 -7.8774,2.05189 -3.1668,0.003 -5.618,0.75135 -8.1969,2.50374 -2.1508,1.46153 -5.099,2.5 -7.0973,2.5 -1.959,0 -4.5587,0.89709 -6.0898,2.10151 -1.6718,1.31506 -5.0383,2.39501 -8.9958,2.8858 -3.4782,0.43136 -7.6017,1.62319 -9.1632,2.64849 -2.4119,1.58368 -5.5553,1.94613 -20.8891,2.40864 -15.665,0.47251 -18.5785,0.81907 -22.05,2.62289 -2.6978,1.40179 -6.6045,2.23323 -12,2.5539 -5.5952,0.33254 -9.0521,1.09228 -11.5,2.52745 -2.6341,1.54433 -5.8503,2.16987 -13,2.52846 -5.225,0.26205 -11.0454,0.27221 -12.9341,0.0226 z"
       id="path2906" />
  </g>
</svg>
